<svg version="1.1" id="Layer_1" xmlns="http://www.w3.org/2000/svg" xmlns:xlink="http://www.w3.org/1999/xlink" x="0px" y="0px"
	 width="100%" viewBox="0 0 542 640" enable-background="new 0 0 542 640" xml:space="preserve">
<path fill="#FFFEFE" opacity="1.000000" stroke="none" 
	d="
M270.000000,641.000000 
	C180.000000,641.000000 90.500000,641.000000 1.000000,641.000000 
	C1.000000,427.666656 1.000000,214.333328 1.000000,1.000000 
	C181.666672,1.000000 362.333344,1.000000 543.000000,1.000000 
	C543.000000,214.333328 543.000000,427.666656 543.000000,641.000000 
	C452.166656,641.000000 361.333344,641.000000 270.000000,641.000000 
M157.862122,384.274048 
	C157.659012,382.490021 157.455917,380.705994 157.442001,378.119446 
	C157.334045,376.754852 157.226089,375.390259 157.438339,373.380890 
	C157.203293,371.277069 156.968231,369.173218 156.822784,366.177704 
	C156.627884,363.823608 156.432983,361.469482 156.557297,358.266998 
	C156.284546,355.200500 156.011780,352.133972 155.858841,348.238403 
	C155.706024,346.861664 155.553207,345.484955 155.706253,343.256470 
	C155.413544,340.185089 155.120850,337.113708 154.925201,333.169128 
	C154.724258,331.150574 154.523300,329.131989 154.615723,326.362183 
	C154.342697,324.591980 154.069656,322.821777 153.880295,320.177338 
	C153.606888,316.455902 153.333466,312.734467 153.374954,308.444672 
	C153.152786,306.988159 152.930618,305.531677 152.799210,303.225464 
	C152.571594,300.158813 152.343979,297.092163 152.458862,293.364655 
	C152.203674,290.936829 151.948471,288.509033 151.813705,285.225037 
	C151.643677,283.521393 151.473648,281.817780 151.637848,279.255066 
	C151.349609,275.855743 151.061371,272.456390 150.875198,268.200684 
	C150.674973,266.505768 150.474747,264.810852 150.597900,262.342194 
	C150.337921,260.243225 150.077957,258.144287 149.912155,255.179382 
	C149.651199,252.128738 149.390244,249.078110 149.456741,245.513916 
	C149.209549,244.366455 148.962341,243.219009 148.747147,241.341827 
	C147.218765,238.987686 145.690369,236.633530 143.739838,233.708694 
	C140.193665,233.345108 136.647476,232.981522 132.514175,232.499603 
	C131.882645,232.925171 131.251114,233.350739 130.002380,234.030975 
	C128.430176,236.617096 125.841843,239.081116 125.513191,241.816650 
	C124.957588,246.441116 125.831551,251.237350 125.935364,256.863129 
	C126.373398,262.573914 126.811432,268.284698 127.068703,274.845062 
	C127.405655,277.552887 127.742615,280.260681 127.907516,283.853394 
	C128.101395,286.232391 128.295258,288.611389 128.266663,291.831238 
	C128.557175,294.535797 128.847687,297.240326 128.946960,300.850616 
	C129.189285,303.897827 129.431595,306.945007 129.392487,310.814819 
	C129.634888,313.527344 129.877274,316.239868 129.935013,319.860596 
	C130.391586,326.238586 130.848160,332.616547 131.125626,339.818848 
	C131.417831,342.212280 131.710037,344.605713 131.848328,347.868286 
	C132.013840,349.909790 132.179337,351.951263 132.157715,354.841522 
	C132.471252,357.547943 132.784790,360.254364 132.920120,363.858612 
	C133.145599,366.569763 133.371078,369.280914 133.324203,372.818695 
	C133.589935,375.529602 133.855667,378.240479 133.929291,381.859497 
	C134.249634,386.560181 134.569992,391.260834 134.644089,396.434479 
	C134.786148,397.282715 134.928207,398.130920 134.916122,399.874146 
	C135.348557,405.581940 135.780975,411.289703 136.043976,417.849426 
	C136.379135,420.559692 136.714294,423.269928 136.878632,426.875397 
	C137.092255,429.581177 137.305862,432.286987 137.294662,435.808411 
	C137.567642,438.190216 137.840637,440.572052 137.915802,443.857788 
	C138.165833,446.903290 138.415878,449.948822 138.393234,453.818970 
	C138.629501,456.532349 138.865768,459.245728 138.918793,462.860046 
	C139.398956,469.571716 139.879105,476.283386 140.160477,483.752808 
	C140.442566,485.501007 140.724655,487.249176 140.873596,489.753876 
	C141.014130,490.500702 141.154648,491.247559 141.173462,492.626312 
	C141.487885,493.402435 141.802307,494.178558 142.010010,495.665070 
	C142.173447,496.106445 142.336884,496.547821 142.369324,497.529022 
	C142.626450,498.001495 142.883575,498.473999 143.073166,499.684448 
	C144.570129,503.000580 145.685287,506.561493 147.628296,509.591644 
	C157.521255,525.019531 171.179276,534.291992 190.927094,534.959106 
	C191.591751,534.989380 192.256424,535.046082 192.921082,535.046143 
	C275.955048,535.056946 358.989014,535.065247 442.022980,535.054932 
	C443.338928,535.054810 444.654846,534.822449 446.697754,534.910278 
	C453.403259,533.230042 457.176727,528.416504 456.699677,522.151489 
	C456.265961,516.455444 452.183777,512.456482 445.314453,511.519806 
	C433.188293,511.500244 421.062134,511.480652 408.930695,510.697784 
	C410.056122,508.277191 411.181580,505.856567 412.811646,503.101410 
	C412.962708,502.356079 413.113739,501.610748 413.671967,500.265991 
	C413.890411,499.327179 414.108856,498.388367 414.808777,497.096802 
	C414.935577,496.355408 415.062408,495.614044 415.468933,494.172546 
	C415.544067,493.426971 415.619171,492.681427 416.095642,491.480652 
	C416.120453,490.307953 416.145264,489.135223 416.362915,487.186646 
	C416.470795,484.434357 416.578705,481.682037 417.125854,478.267090 
	C417.223663,474.139069 417.321472,470.011017 417.652710,465.164154 
	C417.640076,464.412537 417.627441,463.660919 418.082886,462.307373 
	C418.099579,459.194611 418.116272,456.081818 418.308380,452.206757 
	C418.452576,450.119446 418.596802,448.032104 419.131805,445.435181 
	C419.106842,443.952362 419.081848,442.469574 419.201172,440.138794 
	C419.370514,437.071625 419.539856,434.004456 420.115723,430.434174 
	C420.107880,428.949066 420.100037,427.463959 420.277344,425.166565 
	C420.423401,421.757019 420.569458,418.347504 421.133240,414.268402 
	C421.178894,411.136475 421.224548,408.004517 421.510498,404.071320 
	C421.533936,402.680267 421.557404,401.289215 422.071625,399.273560 
	C422.169464,394.808319 422.267303,390.343109 422.626038,385.121643 
	C422.652466,384.059692 422.678864,382.997772 423.108215,381.392883 
	C423.074585,379.594696 423.040924,377.796539 423.150116,375.178131 
	C423.337952,372.431396 423.525787,369.684662 424.125885,366.441498 
	C424.121124,364.952454 424.116364,363.463379 424.275970,361.135925 
	C424.425323,357.737518 424.574646,354.339142 425.141998,350.291565 
	C425.165802,348.151367 425.189606,346.011200 425.443054,343.011627 
	C425.516510,340.315491 425.589966,337.619385 426.124969,334.274780 
	C426.219757,330.143768 426.314575,326.012756 426.641815,321.242401 
	C426.618164,320.793365 426.594482,320.344330 427.061127,319.274048 
	C427.150940,315.140778 427.240723,311.007507 427.589355,306.118622 
	C427.626495,305.057495 427.663605,303.996338 428.099152,302.433655 
	C428.071930,300.954407 428.044708,299.475159 428.169159,297.140320 
	C428.355682,293.740753 428.542206,290.341156 429.128937,286.431824 
	C429.124298,284.945770 429.119690,283.459686 429.294800,281.149261 
	C429.434601,277.745239 429.574432,274.341248 430.148499,270.273621 
	C430.209595,266.807770 430.270660,263.341888 430.572449,259.105743 
	C430.572968,258.035553 430.573486,256.965363 431.068329,255.271988 
	C430.865387,249.987457 430.662415,244.702942 430.319397,238.757095 
	C428.052704,236.705734 425.786041,234.654373 423.164581,232.122116 
	C422.417084,231.863647 421.669617,231.605164 420.869965,230.348267 
	C421.017212,225.799652 421.164429,221.251038 421.764954,216.532425 
	C423.154877,215.954178 424.544830,215.375946 426.528870,214.882980 
	C427.018250,214.585693 427.507660,214.288422 428.649231,213.908173 
	C429.549988,212.984161 430.450745,212.060150 431.941895,210.715759 
	C436.132324,203.633514 434.854126,197.771774 427.777740,193.034500 
	C427.218719,192.934967 426.659668,192.835419 425.702972,192.308350 
	C425.137115,192.261246 424.571259,192.214142 423.099609,191.902481 
	C406.764252,191.909409 390.428894,191.916336 374.241943,191.797897 
	C374.241943,191.797897 374.166565,191.618835 374.066742,190.870560 
	C371.412720,174.586502 358.153992,164.620865 344.594940,163.820694 
	C336.609863,163.349457 331.130219,167.651947 330.564331,174.627625 
	C329.983063,181.792877 334.435394,186.542206 342.331573,188.017365 
	C344.579681,188.437363 346.525635,190.474884 347.557159,191.866180 
	C318.049591,191.908554 288.542053,191.950928 259.069366,191.765854 
	C259.069366,191.765854 258.896240,191.614319 258.837433,190.922638 
	C257.726868,185.734970 255.449722,180.910431 249.792862,180.283157 
	C242.470856,179.471268 238.883087,176.410263 238.095078,168.857635 
	C237.450058,162.675522 231.676208,159.279526 225.137817,159.927811 
	C219.414505,160.495270 215.152359,165.017792 214.873657,170.896194 
	C214.458160,179.660172 217.194916,187.226440 223.147171,193.972595 
	C218.580338,198.005615 218.291107,203.195755 218.742889,209.459946 
	C218.742889,233.804733 218.742889,258.149536 218.742889,282.741364 
	C225.866531,278.892731 232.295670,275.162292 238.968231,271.935211 
	C241.817459,270.557220 242.778931,268.958313 242.752762,265.877472 
	C242.611603,249.255569 242.674240,232.631912 243.630615,215.819931 
	C248.456619,215.805145 253.287430,215.654816 258.106812,215.826492 
	C260.991455,215.929245 263.858154,216.535873 266.812225,217.475464 
	C266.858643,217.657394 266.905029,217.839310 266.759216,218.940063 
	C266.805756,233.287735 266.852295,247.635391 266.783722,262.530060 
	C266.812683,262.714111 266.841614,262.898193 266.916290,263.713226 
	C267.928894,263.730499 268.941498,263.747742 270.891937,263.834198 
	C276.275604,263.807800 281.659241,263.781433 287.434082,264.220490 
	C288.388885,263.816986 289.343658,263.413483 290.363525,262.476379 
	C290.309631,262.305511 290.255737,262.134613 290.384064,261.044373 
	C290.510956,246.042038 290.637848,231.039719 291.716919,215.851746 
	C299.233276,215.910812 306.749664,215.969864 314.242310,216.957901 
	C314.247009,233.288528 314.174011,249.620071 314.368347,265.948425 
	C314.389374,267.715454 315.489014,270.247070 316.890045,271.087524 
	C323.432343,275.012085 330.256012,278.467590 337.740509,282.060455 
	C337.880310,281.345978 338.020111,280.631500 338.321838,279.312897 
	C338.262543,278.904053 338.203247,278.495209 338.272308,277.140594 
	C338.274841,256.768707 338.277405,236.396851 339.169098,215.854202 
	C347.046539,216.109634 354.923950,216.365067 362.693542,217.726868 
	C362.676178,243.702271 362.803101,269.679047 362.557343,295.652283 
	C362.479126,303.916840 363.895782,311.264832 367.547943,318.985382 
	C372.309784,329.051544 374.585999,340.293549 377.825165,351.958618 
	C377.850616,359.964722 377.876099,367.970856 377.475250,376.463593 
	C377.466064,377.309570 377.456879,378.155579 377.113251,379.740814 
	C377.040771,380.812744 376.968292,381.884705 376.463135,383.444580 
	C376.353882,384.296387 376.244629,385.148193 375.804047,386.689240 
	C371.726227,396.401276 367.628815,406.105164 363.595886,415.835785 
	C363.101685,417.028229 362.682526,418.363831 362.683258,419.632843 
	C362.700684,450.063080 362.780212,480.493317 362.756348,511.080200 
	C362.756348,511.080200 362.860718,511.229004 361.953308,511.290680 
	C354.019531,511.261414 346.085724,511.232147 338.255615,511.062317 
	C338.255615,511.062317 338.177094,510.906281 338.347351,509.994446 
	C338.305695,493.663727 338.264038,477.333008 338.545685,460.265167 
	C338.545685,454.889160 338.545685,449.513153 338.545685,444.152588 
	C330.689789,448.227173 323.455627,451.905975 316.320526,455.767822 
	C315.371552,456.281433 314.347504,457.720856 314.341919,458.736938 
	C314.309998,464.537231 314.576019,470.339111 314.443756,477.008423 
	C314.407043,488.372742 314.370300,499.737091 314.044495,511.211792 
	C314.044495,511.211792 314.049316,511.521149 313.112000,511.433777 
	C305.727905,511.455017 298.343781,511.476257 290.995331,511.201111 
	C290.995331,511.201111 290.719116,511.087982 290.708191,510.140381 
	C290.597382,501.129730 290.486572,492.119110 290.688507,482.200897 
	C290.688507,475.777740 290.688507,469.354553 290.688507,462.874878 
	C282.288361,462.874878 274.585175,462.874878 266.865356,462.874878 
	C266.865356,469.811157 266.865356,476.416901 266.709839,483.946838 
	C266.758148,492.941284 266.806427,501.935730 266.752838,511.093506 
	C266.752838,511.093506 266.862488,511.251709 265.955414,511.322601 
	C258.329865,511.413971 250.704315,511.505371 242.837936,511.186584 
	C242.837936,511.186584 242.401779,510.996979 242.397812,510.052490 
	C242.338058,501.394745 242.278290,492.737030 242.549393,483.192535 
	C242.597565,475.395020 242.766251,467.594727 242.586533,459.802460 
	C242.552826,458.341736 241.492905,456.268524 240.280212,455.578156 
	C234.105728,452.063019 227.725357,448.909485 221.056656,445.036041 
	C217.418427,442.969391 218.529877,446.241241 218.527557,447.516571 
	C218.488983,468.750610 218.551056,489.984772 217.574142,511.383057 
	C207.734619,511.372864 197.895081,511.362701 187.464996,510.883820 
	C176.942001,507.804016 168.196060,502.724731 165.472443,490.508606 
	C165.139145,489.486267 164.805832,488.463898 164.564606,486.972412 
	C164.574921,486.643860 164.495438,486.338715 164.662628,485.390076 
	C164.390549,482.938751 164.118469,480.487457 163.938232,477.148682 
	C163.718094,474.807922 163.497940,472.467194 163.585190,469.380096 
	C163.319122,467.603516 163.053055,465.826965 162.864334,463.182861 
	C162.612534,459.795898 162.360733,456.408905 162.427628,452.451782 
	C162.203735,450.987610 161.979843,449.523468 161.834396,447.191956 
	C161.605896,444.138000 161.377396,441.084015 161.493774,437.348999 
	C161.220078,434.593597 160.946381,431.838165 160.791504,428.253235 
	C160.641434,426.876373 160.491364,425.499542 160.684692,423.264343 
	C160.387009,419.859497 160.089340,416.454620 159.889175,412.175629 
	C159.671097,410.159698 159.453018,408.143768 159.573547,405.359497 
	C159.320572,403.254181 159.067596,401.148895 158.894562,398.143921 
	C158.670624,395.482025 158.446701,392.820129 158.514084,389.438995 
	C158.272095,387.976349 158.030090,386.513733 157.862122,384.274048 
M278.783417,439.217285 
	C291.753113,439.665131 303.877686,436.263214 315.043335,430.062012 
	C361.333130,404.353699 368.366608,341.774323 328.810272,306.553986 
	C314.550690,293.857452 297.805634,286.741669 277.242889,288.016357 
	C253.126465,287.904602 233.963593,298.193359 219.050278,316.554230 
	C206.062866,332.544006 201.048752,351.358887 203.191422,371.608398 
	C205.252838,391.090179 213.802048,407.611511 228.931656,420.584229 
	C243.141022,432.767914 259.344025,439.156555 278.783417,439.217285 
M300.552673,92.924881 
	C281.677460,89.393982 265.676788,94.841370 252.424789,108.534271 
	C246.575897,114.577759 246.385147,121.576294 251.619217,126.716270 
	C256.737396,131.742432 263.580750,131.161316 269.691193,125.181671 
	C284.050964,111.129311 303.065552,113.074707 314.537872,129.769989 
	C318.851929,136.048157 326.212555,137.952728 331.814911,134.240479 
	C337.532471,130.451904 338.806305,123.068245 334.703156,116.540848 
	C326.880676,104.096687 315.870300,96.106155 300.552673,92.924881 
M186.064987,145.464203 
	C185.074036,153.678894 188.393326,159.205231 195.273117,160.795013 
	C201.342026,162.197418 206.741226,158.551407 209.348419,151.076950 
	C212.171600,142.983261 217.688843,138.592728 226.295853,137.919281 
	C233.309647,137.370499 237.709045,133.453079 238.415024,127.514366 
	C239.397858,119.246780 233.519592,113.281059 224.781967,113.678436 
	C206.521042,114.508926 191.899017,126.299477 186.064987,145.464203 
M127.701691,193.970016 
	C123.106407,197.609009 121.875526,202.327972 123.636681,207.754272 
	C125.314911,212.925064 129.470428,215.686508 135.569534,215.734421 
	C147.032364,215.824478 158.497498,215.858261 169.959564,215.729492 
	C177.541168,215.644333 182.943329,210.313019 182.813644,203.427170 
	C182.684677,196.579910 177.592087,191.919754 169.919098,191.867859 
	C158.456100,191.790314 146.990707,191.753235 135.529800,191.926712 
	C133.137085,191.962936 130.759384,192.990204 127.701691,193.970016 
M402.036224,171.347275 
	C400.802765,152.775696 387.110779,138.939896 370.369324,139.347641 
	C362.551910,139.538055 356.679749,144.633484 356.410522,151.460052 
	C356.150574,158.051315 361.488831,163.069351 369.443268,163.711090 
	C374.864685,164.148468 377.456116,166.590820 378.226959,171.989349 
	C379.313416,179.598129 383.818481,184.066284 390.409149,184.071655 
	C396.831116,184.076889 400.814423,180.018417 402.036224,171.347275 
M303.244934,135.555679 
	C295.082581,136.482391 291.740143,139.611481 290.445618,147.538010 
	C289.542908,153.065659 287.330994,155.186096 281.677734,155.943329 
	C274.860687,156.856415 270.093079,162.028107 270.364105,168.215836 
	C270.655334,174.864822 276.330780,179.873184 283.509705,179.816330 
	C297.232697,179.707687 310.945831,168.518661 313.757965,155.135696 
	C316.123016,143.880554 313.352478,138.377335 303.244934,135.555679 
M171.515976,171.714615 
	C171.158173,170.263138 170.945602,168.756317 170.417236,167.369827 
	C168.219910,161.603790 161.989532,158.562378 155.683899,160.083282 
	C149.745865,161.515518 146.254471,166.491013 146.784485,172.765610 
	C147.315948,179.057251 152.269272,183.850113 158.584351,184.183228 
	C165.377594,184.541595 170.206802,180.178055 171.515976,171.714615 
M512.665710,533.249268 
	C517.037598,530.127991 518.897705,525.861206 517.807007,520.637085 
	C516.944214,516.504517 514.522095,513.393799 510.325378,511.979919 
	C504.881836,510.145996 499.531342,511.917572 496.277740,516.632385 
	C493.200897,521.091125 493.403778,526.160767 496.832611,530.497620 
	C500.599548,535.262146 505.488525,536.276611 512.665710,533.249268 
z"/>
<path fill="#484E57" opacity="1.000000" stroke="none" 
	d="
M421.580841,399.898163 
	C421.557404,401.289215 421.533936,402.680267 421.098907,404.675354 
	C420.696716,408.498901 420.706116,411.718445 420.715515,414.937958 
	C420.569458,418.347504 420.423401,421.757019 419.914337,425.787262 
	C419.603943,427.917725 419.656555,429.427521 419.709167,430.937286 
	C419.539856,434.004456 419.370514,437.071625 418.872070,440.790771 
	C418.608978,442.943451 418.674988,444.444122 418.740997,445.944794 
	C418.596802,448.032104 418.452576,450.119446 417.929504,452.863190 
	C417.572021,456.649506 417.593445,459.779419 417.614838,462.909302 
	C417.627441,463.660919 417.640076,464.412537 417.214478,465.706543 
	C416.746399,470.475891 416.716492,474.702820 416.686615,478.929749 
	C416.578705,481.682037 416.470795,484.434357 415.996124,487.757751 
	C415.651001,489.531189 415.672638,490.733521 415.694275,491.935852 
	C415.619171,492.681427 415.544067,493.426971 415.079742,494.691650 
	C414.569489,495.957031 414.448425,496.703308 414.327332,497.449554 
	C414.108856,498.388367 413.890411,499.327179 413.198853,500.711853 
	C412.586182,501.917145 412.446594,502.676575 412.307007,503.435974 
	C411.181580,505.856567 410.056122,508.277191 409.114014,511.417419 
	C410.018494,512.426208 410.738403,512.963562 411.461060,512.967285 
	C422.002258,513.021667 432.544128,513.038025 443.084900,512.951355 
	C444.096710,512.943054 445.102448,512.187317 446.110992,511.778503 
	C452.183777,512.456482 456.265961,516.455444 456.699677,522.151489 
	C457.176727,528.416504 453.403259,533.230042 446.211426,534.436401 
	C444.511566,533.640198 443.298218,533.036377 442.084503,533.035767 
	C359.440460,532.992920 276.796387,532.990356 194.152374,533.070190 
	C192.777115,533.071533 191.402863,534.125305 190.028122,534.687927 
	C171.179276,534.291992 157.521255,525.019531 147.628296,509.591644 
	C145.685287,506.561493 144.570129,503.000580 143.306137,499.167419 
	C143.192841,498.096680 142.846573,497.542938 142.500320,496.989197 
	C142.336884,496.547821 142.173447,496.106445 142.294907,495.117828 
	C142.151596,493.711853 141.723389,492.853119 141.295181,491.994385 
	C141.154648,491.247559 141.014130,490.500702 141.211975,489.132538 
	C141.153336,486.672485 140.756302,484.833771 140.359268,482.995056 
	C139.879105,476.283386 139.398956,469.571716 139.278137,462.130554 
	C139.313629,458.598846 138.989761,455.796570 138.665894,452.994324 
	C138.415878,449.948822 138.165833,446.903290 138.278046,443.132477 
	C138.266678,439.935699 137.893082,437.464233 137.519470,434.992767 
	C137.305862,432.286987 137.092255,429.581177 137.243134,426.149536 
	C137.142899,422.614929 136.678146,419.806213 136.213409,416.997498 
	C135.780975,411.289703 135.348557,405.581940 135.203278,399.322906 
	C135.745178,398.571320 135.917145,398.315369 136.373474,398.073975 
	C137.807434,404.523224 140.149002,411.018372 139.581818,417.248657 
	C139.017120,423.451385 139.037506,428.461121 144.016174,432.386627 
	C146.455200,432.254730 149.009033,432.460815 151.355545,431.858795 
	C152.731476,431.505798 154.701508,429.962646 154.824554,428.789185 
	C155.766968,419.800873 156.406143,410.777039 156.956375,401.753052 
	C157.194473,397.848175 157.000092,393.916901 157.024918,389.976379 
	C157.047668,389.955170 157.093109,389.912659 157.281631,389.953735 
	C157.709244,390.103455 157.960129,390.157959 158.222778,390.158234 
	C158.446701,392.820129 158.670624,395.482025 158.615952,398.863892 
	C158.636536,401.765198 158.935730,403.946533 159.234924,406.127838 
	C159.453018,408.143768 159.671097,410.159698 159.579742,412.912842 
	C159.627304,417.140900 159.984299,420.631805 160.341293,424.122681 
	C160.491364,425.499542 160.641434,426.876373 160.488129,428.968018 
	C160.506119,432.465210 160.827499,435.247620 161.148895,438.030060 
	C161.377396,441.084015 161.605896,444.138000 161.560135,447.879150 
	C161.560226,450.051514 161.834595,451.536743 162.108948,453.021942 
	C162.360733,456.408905 162.612534,459.795898 162.585007,463.867706 
	C162.629715,466.410522 162.953751,468.268463 163.277786,470.126434 
	C163.497940,472.467194 163.718094,474.807922 163.638062,477.884125 
	C163.667297,481.098694 163.996719,483.577820 164.326157,486.056946 
	C164.495438,486.338715 164.574921,486.643860 164.363937,487.538849 
	C164.522156,489.113861 164.881042,490.122406 165.239944,491.130981 
	C168.196060,502.724731 176.942001,507.804016 187.892776,511.477478 
	C188.870605,512.369568 189.418869,512.924194 189.970993,512.928101 
	C198.948776,512.991150 207.927261,513.009216 216.904800,512.939941 
	C217.528580,512.935120 218.146454,512.163940 219.071548,511.554810 
	C219.592377,511.254852 219.808746,511.149170 220.272293,511.088684 
	C220.683640,511.100464 220.847794,511.067017 221.445984,511.100342 
	C223.926910,511.135590 225.973770,511.104065 228.483749,511.116638 
	C233.431824,511.106110 237.916809,511.051544 242.401779,510.996979 
	C242.401779,510.996979 242.837936,511.186584 243.108398,511.729187 
	C250.865906,512.448364 258.352692,512.645142 265.840759,512.734741 
	C266.175385,512.738708 266.521637,511.768280 266.862488,511.251709 
	C266.862488,511.251709 266.752838,511.093506 267.278198,511.094604 
	C275.442078,511.093140 283.080597,511.090576 290.719116,511.087982 
	C290.719116,511.087982 290.995331,511.201111 291.151733,511.687561 
	C298.604004,512.354614 305.899689,512.548645 313.196655,512.664490 
	C313.474731,512.668884 313.764832,511.919373 314.049316,511.521149 
	C314.049316,511.521149 314.044495,511.211792 314.630920,511.189636 
	C322.870575,511.080414 330.523834,510.993347 338.177094,510.906281 
	C338.177094,510.906281 338.255615,511.062317 338.288269,511.505127 
	C338.841095,512.285461 339.357971,512.910706 339.882050,512.916870 
	C346.711060,512.996460 353.542206,513.049561 360.369415,512.923706 
	C361.209961,512.908264 362.030762,511.820068 362.860718,511.229004 
	C362.860718,511.229004 362.756348,511.080200 363.245392,511.085480 
	C378.297760,511.089081 390.805847,500.988770 391.956665,487.369202 
	C393.635986,467.494965 394.656067,447.565155 395.971039,427.659973 
	C397.064911,411.101318 398.178772,394.544006 399.631958,377.882324 
	C399.974030,375.179474 399.967865,372.580444 399.923218,369.516296 
	C400.123444,364.341644 400.362183,359.632019 400.838684,354.875854 
	C401.038757,354.213226 401.001068,353.597137 400.929199,352.566589 
	C400.847687,350.771820 400.800385,349.391541 400.847137,347.566223 
	C401.772156,335.407684 402.603119,323.694183 403.751617,311.872772 
	C404.043701,309.842194 404.018280,307.919464 403.948853,305.542297 
	C404.058197,302.053009 404.211548,299.018250 404.698303,295.876282 
	C405.016693,293.510651 405.001740,291.252167 404.945984,288.528076 
	C405.165924,283.368744 405.426605,278.674988 405.908875,273.906494 
	C406.089722,273.222382 406.048950,272.613007 405.976318,271.547607 
	C406.564697,261.816284 407.008026,252.524734 407.859467,243.270721 
	C408.580933,235.429398 412.717346,232.014008 421.033936,232.199997 
	C422.063507,232.493408 422.791412,232.548203 423.519348,232.603012 
	C425.786041,234.654373 428.052704,236.705734 430.254944,239.583374 
	C430.318298,245.571487 430.446136,250.733322 430.574005,255.895172 
	C430.573486,256.965363 430.572968,258.035553 430.146851,259.685822 
	C429.718933,263.822998 429.716583,267.380127 429.714233,270.937225 
	C429.574432,274.341248 429.434601,277.745239 428.931793,281.775696 
	C428.622101,283.915253 428.675385,285.428436 428.728699,286.941589 
	C428.542206,290.341156 428.355682,293.740753 427.837158,297.794006 
	C427.570343,299.943512 427.635559,301.439362 427.700745,302.935211 
	C427.663605,303.996338 427.626495,305.057495 427.151886,306.695251 
	C426.666534,311.479675 426.618683,315.687469 426.570831,319.895294 
	C426.594482,320.344330 426.618164,320.793365 426.203735,321.744629 
	C425.731567,326.472321 425.697479,330.697784 425.663391,334.923248 
	C425.589966,337.619385 425.516510,340.315491 425.057556,343.636932 
	C424.689362,346.488403 424.706665,348.714569 424.723938,350.940735 
	C424.574646,354.339142 424.425323,357.737518 423.926239,361.774261 
	C423.622223,363.921051 423.667938,365.429474 423.713623,366.937927 
	C423.525787,369.684662 423.337952,372.431396 422.820740,375.835327 
	C422.562653,378.306946 422.633972,380.121399 422.705292,381.935822 
	C422.678864,382.997772 422.652466,384.059692 422.180450,385.692444 
	C421.683533,390.808228 421.632172,395.353180 421.580841,399.898163 
z"/>
<path fill="#F2B837" opacity="1.000000" stroke="none" 
	d="
M278.192688,288.144196 
	C297.805634,286.741669 314.550690,293.857452 328.810272,306.553986 
	C368.366608,341.774323 361.333130,404.353699 315.043335,430.062012 
	C303.877686,436.263214 291.753113,439.665131 278.466278,438.612000 
	C278.163666,388.052551 278.178192,338.098358 278.192688,288.144196 
z"/>
<path fill="#FFF0B6" opacity="1.000000" stroke="none" 
	d="
M277.717773,288.080261 
	C278.178192,338.098358 278.163666,388.052551 278.124542,438.469177 
	C259.344025,439.156555 243.141022,432.767914 228.931656,420.584229 
	C213.802048,407.611511 205.252838,391.090179 203.191422,371.608398 
	C201.048752,351.358887 206.062866,332.544006 219.050278,316.554230 
	C233.963593,298.193359 253.126465,287.904602 277.717773,288.080261 
z"/>
<path fill="#DB4468" opacity="1.000000" stroke="none" 
	d="
M404.364899,295.983459 
	C404.211548,299.018250 404.058197,302.053009 403.702972,305.830322 
	C403.478729,308.375458 403.456421,310.178040 403.434113,311.980652 
	C402.603119,323.694183 401.772156,335.407684 400.533875,347.640747 
	C399.439331,349.317749 398.752045,350.475189 397.989807,351.758911 
	C394.073578,346.975433 391.290894,350.496826 389.646271,353.111542 
	C387.024811,357.278992 383.993591,357.613892 380.009277,355.607697 
	C378.974213,353.994110 382.154144,350.681580 377.931763,351.029572 
	C374.585999,340.293549 372.309784,329.051544 367.547943,318.985382 
	C363.895782,311.264832 362.479126,303.916840 362.557343,295.652283 
	C362.803101,269.679047 362.676178,243.702271 363.016357,216.986115 
	C382.062408,216.148636 400.785645,216.044861 419.509033,215.986923 
	C420.109161,215.985077 420.710754,216.453323 421.311646,216.702423 
	C421.164429,221.251038 421.017212,225.799652 420.854401,231.002838 
	C420.838837,231.657394 420.732269,231.961395 420.732269,231.961395 
	C412.717346,232.014008 408.580933,235.429398 407.859467,243.270721 
	C407.008026,252.524734 406.564697,261.816284 405.766052,271.738403 
	C405.620850,272.917236 405.654053,273.449249 405.687286,273.981232 
	C405.426605,278.674988 405.165924,283.368744 404.697266,288.824707 
	C404.447815,291.719116 404.406372,293.851288 404.364899,295.983459 
z"/>
<path fill="#DA4065" opacity="1.000000" stroke="none" 
	d="
M380.012634,355.991455 
	C383.993591,357.613892 387.024811,357.278992 389.646271,353.111542 
	C391.290894,350.496826 394.073578,346.975433 397.989807,351.758911 
	C398.752045,350.475189 399.439331,349.317749 400.439819,348.085754 
	C400.800385,349.391541 400.847687,350.771820 400.689331,352.646057 
	C400.522736,353.734131 400.561829,354.328278 400.600922,354.922424 
	C400.362183,359.632019 400.123444,364.341644 399.672974,369.820740 
	C399.402100,373.055511 399.342957,375.520782 399.283783,377.986084 
	C398.178772,394.544006 397.064911,411.101318 395.971039,427.659973 
	C394.656067,447.565155 393.635986,467.494965 391.956665,487.369202 
	C390.805847,500.988770 378.297760,511.089081 363.291473,511.007141 
	C362.780212,480.493317 362.700684,450.063080 362.683258,419.632843 
	C362.682526,418.363831 363.101685,417.028229 363.595886,415.835785 
	C367.628815,406.105164 371.726227,396.401276 376.288422,386.290375 
	C376.813812,384.913208 376.854828,383.934937 376.895813,382.956635 
	C376.968292,381.884705 377.040771,380.812744 377.581482,379.283630 
	C378.367310,377.884277 378.684875,376.942139 379.298645,375.705505 
	C379.734131,368.937805 379.873383,362.464630 380.012634,355.991455 
z"/>
<path fill="#4B525B" opacity="1.000000" stroke="none" 
	d="
M157.002167,389.997620 
	C157.000092,393.916901 157.194473,397.848175 156.956375,401.753052 
	C156.406143,410.777039 155.766968,419.800873 154.824554,428.789185 
	C154.701508,429.962646 152.731476,431.505798 151.355545,431.858795 
	C149.009033,432.460815 146.455200,432.254730 144.016174,432.386627 
	C139.037506,428.461121 139.017120,423.451385 139.581818,417.248657 
	C140.149002,411.018372 137.807434,404.523224 136.344940,397.763611 
	C135.596313,396.909210 135.243332,396.435364 134.890335,395.961517 
	C134.569992,391.260834 134.249634,386.560181 134.290100,381.124023 
	C134.299454,377.589722 133.948013,374.790894 133.596558,371.992065 
	C133.371078,369.280914 133.145599,366.569763 133.278961,363.128143 
	C133.206818,359.596039 132.775833,356.794403 132.344849,353.992767 
	C132.179337,351.951263 132.013840,349.909790 132.208481,347.167023 
	C132.147339,343.975342 131.726044,341.484955 131.304733,338.994537 
	C130.848160,332.616547 130.391586,326.238586 130.292297,319.126099 
	C130.324356,315.591797 129.999130,312.791992 129.673904,309.992218 
	C129.431595,306.945007 129.189285,303.897827 129.304550,300.113831 
	C129.271133,296.581482 128.880142,293.785919 128.489136,290.990387 
	C128.295258,288.611389 128.101395,286.232391 128.267273,283.130188 
	C128.167847,279.603119 127.708664,276.799316 127.249474,273.995483 
	C126.811432,268.284698 126.373398,262.573914 126.285141,256.213379 
	C129.120300,252.743408 129.689407,255.131226 129.900986,256.965973 
	C130.184875,259.427643 129.754166,261.973145 130.052658,264.431396 
	C130.598511,268.926758 130.979370,273.849487 136.645142,275.004730 
	C139.195251,275.524750 141.939484,275.092804 144.054962,275.092804 
	C145.581177,270.638367 147.583191,267.169861 147.812576,263.587799 
	C148.187927,257.726257 147.697403,251.757477 147.017548,245.898300 
	C146.561493,241.967789 145.147400,238.148468 144.161972,234.279388 
	C145.690369,236.633530 147.218765,238.987686 148.511719,241.947662 
	C148.560623,243.711487 148.844955,244.869476 149.129288,246.027466 
	C149.390244,249.078110 149.651199,252.128738 149.623383,255.881439 
	C149.647934,258.760986 149.961243,260.938446 150.274536,263.115936 
	C150.474747,264.810852 150.674973,266.505768 150.566071,268.930176 
	C150.605835,273.144470 150.954727,276.629303 151.303604,280.114136 
	C151.473648,281.817780 151.643677,283.521393 151.509033,285.944031 
	C151.508362,289.117218 151.812363,291.571350 152.116364,294.025513 
	C152.343979,297.092163 152.571594,300.158813 152.525940,303.906006 
	C152.521790,306.062042 152.790924,307.537537 153.060059,309.013031 
	C153.333466,312.734467 153.606888,316.455902 153.603424,320.870331 
	C153.658493,323.413361 153.990417,325.263397 154.322342,327.113434 
	C154.523300,329.131989 154.724258,331.150574 154.622253,333.905273 
	C154.679657,337.797028 155.040009,340.952637 155.400375,344.108215 
	C155.553207,345.484955 155.706024,346.861664 155.544281,348.949158 
	C155.565842,352.811707 155.901978,355.963562 156.238098,359.115387 
	C156.432983,361.469482 156.627884,363.823608 156.535248,366.904724 
	C156.537842,369.763031 156.827972,371.894348 157.118118,374.025665 
	C157.226089,375.390259 157.334045,376.754852 157.009674,378.774902 
	C156.718948,382.952759 156.860550,386.475189 157.002167,389.997620 
z"/>
<path fill="#4A5159" opacity="1.000000" stroke="none" 
	d="
M427.997040,213.991150 
	C427.507660,214.288422 427.018250,214.585693 426.047760,214.535751 
	C422.728973,214.127151 419.891479,214.054688 417.053589,214.006180 
	C397.467773,213.671356 377.882751,213.208145 358.295532,213.074142 
	C350.189819,213.018692 342.080261,213.925125 333.970734,213.957321 
	C304.861633,214.072845 275.751801,214.004623 246.642227,213.990723 
	C245.480392,213.990158 244.318634,213.835571 243.156830,213.752747 
	C249.146393,212.993866 255.102386,213.017105 261.058136,212.988998 
	C273.230438,212.931534 280.890137,206.289383 283.454346,194.008698 
	C304.304749,194.002991 324.684967,194.045547 345.064087,193.919312 
	C346.709106,193.909119 348.346985,192.740051 350.451050,192.024933 
	C358.664795,191.833176 366.415680,191.725998 374.166565,191.618835 
	C374.166565,191.618835 374.241943,191.797897 374.223450,192.264313 
	C375.021484,193.146347 375.836212,193.920242 376.654846,193.924423 
	C391.434265,194.000015 406.214417,194.018265 420.993347,193.907150 
	C422.001648,193.899582 423.001587,192.773132 424.005402,192.167053 
	C424.571259,192.214142 425.137115,192.261246 425.905640,192.861572 
	C426.798218,193.428284 427.488159,193.441757 428.178070,193.455231 
	C434.854126,197.771774 436.132324,203.633514 431.281586,210.908539 
	C429.746552,212.064606 428.871796,213.027878 427.997040,213.991150 
z"/>
<path fill="#515760" opacity="1.000000" stroke="none" 
	d="
M300.976685,92.989380 
	C315.870300,96.106155 326.880676,104.096687 334.703156,116.540848 
	C338.806305,123.068245 337.532471,130.451904 331.814911,134.240479 
	C326.212555,137.952728 318.851929,136.048157 314.537872,129.769989 
	C303.065552,113.074707 284.050964,111.129311 269.691193,125.181671 
	C263.580750,131.161316 256.737396,131.742432 251.619217,126.716270 
	C246.385147,121.576294 246.575897,114.577759 252.424789,108.534271 
	C265.676788,94.841370 281.677460,89.393982 300.976685,92.989380 
z"/>
<path fill="#545760" opacity="1.000000" stroke="none" 
	d="
M282.983887,194.013489 
	C280.890137,206.289383 273.230438,212.931534 261.058136,212.988998 
	C255.102386,213.017105 249.146393,212.993866 243.156830,213.752747 
	C244.318634,213.835571 245.480392,213.990158 246.642227,213.990723 
	C275.751801,214.004623 304.861633,214.072845 333.970734,213.957321 
	C342.080261,213.925125 350.189819,213.018692 358.295532,213.074142 
	C377.882751,213.208145 397.467773,213.671356 417.053589,214.006180 
	C419.891479,214.054688 422.728973,214.127151 425.750732,214.493103 
	C424.544830,215.375946 423.154877,215.954178 421.538300,216.617416 
	C420.710754,216.453323 420.109161,215.985077 419.509033,215.986923 
	C400.785645,216.044861 382.062408,216.148636 363.070251,216.432938 
	C354.923950,216.365067 347.046539,216.109634 338.398407,215.907547 
	C337.413300,216.000504 337.198883,216.040100 336.522034,216.003052 
	C328.795105,215.960571 321.530548,215.994751 314.266022,216.028915 
	C306.749664,215.969864 299.233276,215.910812 290.798401,215.873398 
	C282.585907,215.953812 275.291901,216.012589 267.725616,216.092392 
	C267.213196,216.380966 266.973083,216.648499 266.732941,216.916016 
	C263.858154,216.535873 260.991455,215.929245 258.106812,215.826492 
	C253.287430,215.654816 248.456619,215.805145 242.715683,215.850525 
	C239.320999,215.876694 236.830353,215.720490 234.363602,215.897369 
	C227.904770,216.360504 222.713272,214.303955 219.163300,208.700073 
	C218.291107,203.195755 218.580338,198.005615 223.727997,193.608673 
	C226.891556,192.788071 229.465439,192.003983 232.058609,191.934052 
	C241.000854,191.692932 249.949829,191.701096 258.896240,191.614319 
	C258.896240,191.614319 259.069366,191.765854 259.130280,192.278473 
	C260.674622,193.196655 262.151550,193.922012 263.642609,193.952393 
	C270.087463,194.083664 276.536407,194.011581 282.983887,194.013489 
z"/>
<path fill="#FE607F" opacity="1.000000" stroke="none" 
	d="
M218.953094,209.080017 
	C222.713272,214.303955 227.904770,216.360504 234.363602,215.897369 
	C236.830353,215.720490 239.320999,215.876694 242.233673,215.944992 
	C242.674240,232.631912 242.611603,249.255569 242.752762,265.877472 
	C242.778931,268.958313 241.817459,270.557220 238.968231,271.935211 
	C232.295670,275.162292 225.866531,278.892731 218.742889,282.741364 
	C218.742889,258.149536 218.742889,233.804733 218.953094,209.080017 
z"/>
<path fill="#525961" opacity="1.000000" stroke="none" 
	d="
M186.178955,145.089249 
	C191.899017,126.299477 206.521042,114.508926 224.781967,113.678436 
	C233.519592,113.281059 239.397858,119.246780 238.415024,127.514366 
	C237.709045,133.453079 233.309647,137.370499 226.295853,137.919281 
	C217.688843,138.592728 212.171600,142.983261 209.348419,151.076950 
	C206.741226,158.551407 201.342026,162.197418 195.273117,160.795013 
	C188.393326,159.205231 185.074036,153.678894 186.178955,145.089249 
z"/>
<path fill="#FF5E7E" opacity="1.000000" stroke="none" 
	d="
M314.254150,216.493408 
	C321.530548,215.994751 328.795105,215.960571 336.525635,216.464340 
	C336.992035,235.494598 336.959534,253.987076 337.043121,272.479034 
	C337.051544,274.349762 337.760223,276.217316 338.143951,278.086365 
	C338.203247,278.495209 338.262543,278.904053 337.959076,279.787354 
	C337.390594,280.871429 337.184845,281.481110 336.979095,282.090759 
	C330.256012,278.467590 323.432343,275.012085 316.890045,271.087524 
	C315.489014,270.247070 314.389374,267.715454 314.368347,265.948425 
	C314.174011,249.620071 314.247009,233.288528 314.254150,216.493408 
z"/>
<path fill="#525961" opacity="1.000000" stroke="none" 
	d="
M128.038223,193.765381 
	C130.759384,192.990204 133.137085,191.962936 135.529800,191.926712 
	C146.990707,191.753235 158.456100,191.790314 169.919098,191.867859 
	C177.592087,191.919754 182.684677,196.579910 182.813644,203.427170 
	C182.943329,210.313019 177.541168,215.644333 169.959564,215.729492 
	C158.497498,215.858261 147.032364,215.824478 135.569534,215.734421 
	C129.470428,215.686508 125.314911,212.925064 123.636681,207.754272 
	C121.875526,202.327972 123.106407,197.609009 128.038223,193.765381 
z"/>
<path fill="#4E555D" opacity="1.000000" stroke="none" 
	d="
M402.035950,171.786514 
	C400.814423,180.018417 396.831116,184.076889 390.409149,184.071655 
	C383.818481,184.066284 379.313416,179.598129 378.226959,171.989349 
	C377.456116,166.590820 374.864685,164.148468 369.443268,163.711090 
	C361.488831,163.069351 356.150574,158.051315 356.410522,151.460052 
	C356.679749,144.633484 362.551910,139.538055 370.369324,139.347641 
	C387.110779,138.939896 400.802765,152.775696 402.035950,171.786514 
z"/>
<path fill="#F3BA3D" opacity="1.000000" stroke="none" 
	d="
M303.609558,135.628571 
	C313.352478,138.377335 316.123016,143.880554 313.757965,155.135696 
	C310.945831,168.518661 297.232697,179.707687 283.509705,179.816330 
	C276.330780,179.873184 270.655334,174.864822 270.364105,168.215836 
	C270.093079,162.028107 274.860687,156.856415 281.677734,155.943329 
	C287.330994,155.186096 289.542908,153.065659 290.445618,147.538010 
	C291.740143,139.611481 295.082581,136.482391 303.609558,135.628571 
z"/>
<path fill="#FF5C7C" opacity="1.000000" stroke="none" 
	d="
M267.997925,216.071350 
	C275.291901,216.012589 282.585907,215.953812 290.322327,215.966217 
	C290.637848,231.039719 290.510956,246.042038 289.806274,261.517303 
	C281.785278,261.987854 274.342072,261.985443 266.898865,261.983032 
	C266.852295,247.635391 266.805756,233.287735 267.105255,218.323181 
	C267.633514,217.161316 267.815735,216.616333 267.997925,216.071350 
z"/>
<path fill="#DB3F65" opacity="1.000000" stroke="none" 
	d="
M338.262207,510.450378 
	C330.523834,510.993347 322.870575,511.080414 314.775452,511.134460 
	C314.370300,499.737091 314.407043,488.372742 314.909058,476.521332 
	C322.990356,471.023621 330.606384,466.012970 338.222351,461.002319 
	C338.264038,477.333008 338.305695,493.663727 338.262207,510.450378 
z"/>
<path fill="#FF5E7E" opacity="1.000000" stroke="none" 
	d="
M228.020645,511.072540 
	C225.973770,511.104065 223.926910,511.135590 221.444000,510.628784 
	C220.990768,488.751709 220.973602,467.412964 221.068985,445.960327 
	C221.181534,445.846436 221.417053,445.629395 221.417053,445.629395 
	C227.725357,448.909485 234.105728,452.063019 240.280212,455.578156 
	C241.492905,456.268524 242.552826,458.341736 242.586533,459.802460 
	C242.766251,467.594727 242.597565,475.395020 242.059479,483.635132 
	C238.804886,485.460968 235.663605,486.389771 233.345108,488.311310 
	C225.945648,494.444061 226.137741,502.621460 228.020645,511.072540 
z"/>
<path fill="#F3BA3D" opacity="1.000000" stroke="none" 
	d="
M258.866821,191.268463 
	C249.949829,191.701096 241.000854,191.692932 232.058609,191.934052 
	C229.465439,192.003983 226.891556,192.788071 223.925858,193.318634 
	C217.194916,187.226440 214.458160,179.660172 214.873657,170.896194 
	C215.152359,165.017792 219.414505,160.495270 225.137817,159.927811 
	C231.676208,159.279526 237.450058,162.675522 238.095078,168.857635 
	C238.883087,176.410263 242.470856,179.471268 249.792862,180.283157 
	C255.449722,180.910431 257.726868,185.734970 258.866821,191.268463 
z"/>
<path fill="#F2BA3B" opacity="1.000000" stroke="none" 
	d="
M374.116638,191.244690 
	C366.415680,191.725998 358.664795,191.833176 350.221802,191.953323 
	C349.210236,191.961807 348.903717,191.896591 348.610138,191.770645 
	C346.525635,190.474884 344.579681,188.437363 342.331573,188.017365 
	C334.435394,186.542206 329.983063,181.792877 330.564331,174.627625 
	C331.130219,167.651947 336.609863,163.349457 344.594940,163.820694 
	C358.153992,164.620865 371.412720,174.586502 374.116638,191.244690 
z"/>
<path fill="#50565F" opacity="1.000000" stroke="none" 
	d="
M143.950897,233.994049 
	C145.147400,238.148468 146.561493,241.967789 147.017548,245.898300 
	C147.697403,251.757477 148.187927,257.726257 147.812576,263.587799 
	C147.583191,267.169861 145.581177,270.638367 144.054962,275.092804 
	C141.939484,275.092804 139.195251,275.524750 136.645142,275.004730 
	C130.979370,273.849487 130.598511,268.926758 130.052658,264.431396 
	C129.754166,261.973145 130.184875,259.427643 129.900986,256.965973 
	C129.689407,255.131226 129.120300,252.743408 126.369675,255.762512 
	C125.831551,251.237350 124.957588,246.441116 125.513191,241.816650 
	C125.841843,239.081116 128.430176,236.617096 130.617157,233.963440 
	C131.855057,233.469925 132.478180,233.043945 133.101303,232.617950 
	C136.647476,232.981522 140.193665,233.345108 143.950897,233.994049 
z"/>
<path fill="#DB3F65" opacity="1.000000" stroke="none" 
	d="
M290.713654,510.614197 
	C283.080597,511.090576 275.442078,511.093140 267.329132,511.012939 
	C266.806427,501.935730 266.758148,492.941284 267.265686,483.471741 
	C275.339600,483.033936 282.857697,483.071198 290.375793,483.108459 
	C290.486572,492.119110 290.597382,501.129730 290.713654,510.614197 
z"/>
<path fill="#3A414B" opacity="1.000000" stroke="none" 
	d="
M190.477600,534.823486 
	C191.402863,534.125305 192.777115,533.071533 194.152374,533.070190 
	C276.796387,532.990356 359.440460,532.992920 442.084503,533.035767 
	C443.298218,533.036377 444.511566,533.640198 445.847961,534.330444 
	C444.654846,534.822449 443.338928,535.054810 442.022980,535.054932 
	C358.989014,535.065247 275.955048,535.056946 192.921082,535.046143 
	C192.256424,535.046082 191.591751,534.989380 190.477600,534.823486 
z"/>
<path fill="#FF5E7E" opacity="1.000000" stroke="none" 
	d="
M290.532166,482.654663 
	C282.857697,483.071198 275.339600,483.033936 267.343445,483.009644 
	C266.865356,476.416901 266.865356,469.811157 266.865356,462.874878 
	C274.585175,462.874878 282.288361,462.874878 290.688507,462.874878 
	C290.688507,469.354553 290.688507,475.777740 290.532166,482.654663 
z"/>
<path fill="#555B63" opacity="1.000000" stroke="none" 
	d="
M171.521851,172.101303 
	C170.206802,180.178055 165.377594,184.541595 158.584351,184.183228 
	C152.269272,183.850113 147.315948,179.057251 146.784485,172.765610 
	C146.254471,166.491013 149.745865,161.515518 155.683899,160.083282 
	C161.989532,158.562378 168.219910,161.603790 170.417236,167.369827 
	C170.945602,168.756317 171.158173,170.263138 171.521851,172.101303 
z"/>
<path fill="#FF5E7E" opacity="1.000000" stroke="none" 
	d="
M338.384033,460.633728 
	C330.606384,466.012970 322.990356,471.023621 315.057587,476.087341 
	C314.576019,470.339111 314.309998,464.537231 314.341919,458.736938 
	C314.347504,457.720856 315.371552,456.281433 316.320526,455.767822 
	C323.455627,451.905975 330.689789,448.227173 338.545685,444.152588 
	C338.545685,449.513153 338.545685,454.889160 338.384033,460.633728 
z"/>
<path fill="#4A5159" opacity="1.000000" stroke="none" 
	d="
M512.361572,533.453003 
	C505.488525,536.276611 500.599548,535.262146 496.832611,530.497620 
	C493.403778,526.160767 493.200897,521.091125 496.277740,516.632385 
	C499.531342,511.917572 504.881836,510.145996 510.325378,511.979919 
	C514.522095,513.393799 516.944214,516.504517 517.807007,520.637085 
	C518.897705,525.861206 517.037598,530.127991 512.361572,533.453003 
z"/>
<path fill="#DB3F65" opacity="1.000000" stroke="none" 
	d="
M228.483749,511.116638 
	C226.137741,502.621460 225.945648,494.444061 233.345108,488.311310 
	C235.663605,486.389771 238.804886,485.460968 241.894043,484.078491 
	C242.278290,492.737030 242.338058,501.394745 242.399796,510.524719 
	C237.916809,511.051544 233.431824,511.106110 228.483749,511.116638 
z"/>
<path fill="#484E57" opacity="1.000000" stroke="none" 
	d="
M348.083649,191.818420 
	C348.903717,191.896591 349.210236,191.961807 349.758911,192.037903 
	C348.346985,192.740051 346.709106,193.909119 345.064087,193.919312 
	C324.684967,194.045547 304.304749,194.002991 283.454346,194.008698 
	C276.536407,194.011581 270.087463,194.083664 263.642609,193.952393 
	C262.151550,193.922012 260.674622,193.196655 259.112854,192.392212 
	C288.542053,191.950928 318.049591,191.908554 348.083649,191.818420 
z"/>
<path fill="#FF5E7E" opacity="1.000000" stroke="none" 
	d="
M220.025116,511.043457 
	C219.808746,511.149170 219.592377,511.254852 219.013184,511.427032 
	C218.650360,511.493561 218.590668,511.218933 218.590668,511.218933 
	C218.551056,489.984772 218.488983,468.750610 218.527557,447.516571 
	C218.529877,446.241241 217.418427,442.969391 221.236847,445.332703 
	C221.417053,445.629395 221.181534,445.846436 220.776382,446.244598 
	C220.252060,448.123444 220.030579,449.604034 220.029160,451.084808 
	C220.009918,471.071014 220.021317,491.057251 220.025116,511.043457 
z"/>
<path fill="#545760" opacity="1.000000" stroke="none" 
	d="
M423.552490,192.034760 
	C423.001587,192.773132 422.001648,193.899582 420.993347,193.907150 
	C406.214417,194.018265 391.434265,194.000015 376.654846,193.924423 
	C375.836212,193.920242 375.021484,193.146347 374.149231,192.326996 
	C390.428894,191.916336 406.764252,191.909409 423.552490,192.034760 
z"/>
<path fill="#2C353F" opacity="1.000000" stroke="none" 
	d="
M445.712708,511.649170 
	C445.102448,512.187317 444.096710,512.943054 443.084900,512.951355 
	C432.544128,513.038025 422.002258,513.021667 411.461060,512.967285 
	C410.738403,512.963562 410.018494,512.426208 409.116638,511.799042 
	C421.062134,511.480652 433.188293,511.500244 445.712708,511.649170 
z"/>
<path fill="#FF4A6D" opacity="1.000000" stroke="none" 
	d="
M338.208130,277.613464 
	C337.760223,276.217316 337.051544,274.349762 337.043121,272.479034 
	C336.959534,253.987076 336.992035,235.494598 336.988068,216.540985 
	C337.198883,216.040100 337.413300,216.000504 337.953857,215.992935 
	C338.277405,236.396851 338.274841,256.768707 338.208130,277.613464 
z"/>
<path fill="#2C353F" opacity="1.000000" stroke="none" 
	d="
M218.082397,511.300995 
	C218.590668,511.218933 218.650360,511.493561 218.708710,511.621338 
	C218.146454,512.163940 217.528580,512.935120 216.904800,512.939941 
	C207.927261,513.009216 198.948776,512.991150 189.970993,512.928101 
	C189.418869,512.924194 188.870605,512.369568 188.188049,511.711853 
	C197.895081,511.362701 207.734619,511.372864 218.082397,511.300995 
z"/>
<path fill="#DB3F65" opacity="1.000000" stroke="none" 
	d="
M380.009277,355.607697 
	C379.873383,362.464630 379.734131,368.937805 379.023438,375.699493 
	C378.268524,375.984314 378.085052,375.980652 377.901581,375.976959 
	C377.876099,367.970856 377.850616,359.964722 377.878479,351.494080 
	C382.154144,350.681580 378.974213,353.994110 380.009277,355.607697 
z"/>
<path fill="#2C353F" opacity="1.000000" stroke="none" 
	d="
M362.407013,511.259827 
	C362.030762,511.820068 361.209961,512.908264 360.369415,512.923706 
	C353.542206,513.049561 346.711060,512.996460 339.882050,512.916870 
	C339.357971,512.910706 338.841095,512.285461 338.236420,511.575439 
	C346.085724,511.232147 354.019531,511.261414 362.407013,511.259827 
z"/>
<path fill="#2C353F" opacity="1.000000" stroke="none" 
	d="
M266.408936,511.287140 
	C266.521637,511.768280 266.175385,512.738708 265.840759,512.734741 
	C258.352692,512.645142 250.865906,512.448364 243.228821,511.934265 
	C250.704315,511.505371 258.329865,511.413971 266.408936,511.287140 
z"/>
<path fill="#2C353F" opacity="1.000000" stroke="none" 
	d="
M313.580688,511.477478 
	C313.764832,511.919373 313.474731,512.668884 313.196655,512.664490 
	C305.899689,512.548645 298.604004,512.354614 291.133911,511.835754 
	C298.343781,511.476257 305.727905,511.455017 313.580688,511.477478 
z"/>
<path fill="#FF4A6D" opacity="1.000000" stroke="none" 
	d="
M266.841309,262.256531 
	C274.342072,261.985443 281.785278,261.987854 289.715149,261.976990 
	C290.255737,262.134613 290.309631,262.305511 289.978729,262.738220 
	C288.743591,263.251709 287.893250,263.503357 287.042908,263.755035 
	C281.659241,263.781433 276.275604,263.807800 270.190369,263.568481 
	C268.616058,263.229248 267.743317,263.155731 266.870575,263.082245 
	C266.841614,262.898193 266.812683,262.714111 266.841309,262.256531 
z"/>
<path fill="#70767D" opacity="1.000000" stroke="none" 
	d="
M430.821167,255.583588 
	C430.446136,250.733322 430.318298,245.571487 430.324951,239.914032 
	C430.662415,244.702942 430.865387,249.987457 430.821167,255.583588 
z"/>
<path fill="#70767D" opacity="1.000000" stroke="none" 
	d="
M421.826233,399.585876 
	C421.632172,395.353180 421.683533,390.808228 422.049988,386.070557 
	C422.267303,390.343109 422.169464,394.808319 421.826233,399.585876 
z"/>
<path fill="#70767D" opacity="1.000000" stroke="none" 
	d="
M416.906250,478.598419 
	C416.716492,474.702820 416.746399,470.475891 417.097778,466.065979 
	C417.321472,470.011017 417.223663,474.139069 416.906250,478.598419 
z"/>
<path fill="#70767D" opacity="1.000000" stroke="none" 
	d="
M426.815979,319.584656 
	C426.618683,315.687469 426.666534,311.479675 427.022461,307.073059 
	C427.240723,311.007507 427.150940,315.140778 426.815979,319.584656 
z"/>
<path fill="#70767D" opacity="1.000000" stroke="none" 
	d="
M425.894196,334.598999 
	C425.697479,330.697784 425.731567,326.472321 426.087524,322.064301 
	C426.314575,326.012756 426.219757,330.143768 425.894196,334.598999 
z"/>
<path fill="#70767D" opacity="1.000000" stroke="none" 
	d="
M151.470734,279.684601 
	C150.954727,276.629303 150.605835,273.144470 150.515045,269.358337 
	C151.061371,272.456390 151.349609,275.855743 151.470734,279.684601 
z"/>
<path fill="#70767D" opacity="1.000000" stroke="none" 
	d="
M429.931366,270.605408 
	C429.716583,267.380127 429.718933,263.822998 430.026489,260.070984 
	C430.270660,263.341888 430.209595,266.807770 429.931366,270.605408 
z"/>
<path fill="#70767D" opacity="1.000000" stroke="none" 
	d="
M160.513000,423.693512 
	C159.984299,420.631805 159.627304,417.140900 159.530991,413.349915 
	C160.089340,416.454620 160.387009,419.859497 160.513000,423.693512 
z"/>
<path fill="#70767D" opacity="1.000000" stroke="none" 
	d="
M155.553314,343.682343 
	C155.040009,340.952637 154.679657,337.797028 154.573730,334.341888 
	C155.120850,337.113708 155.413544,340.185089 155.553314,343.682343 
z"/>
<path fill="#70767D" opacity="1.000000" stroke="none" 
	d="
M420.924377,414.603180 
	C420.706116,411.718445 420.696716,408.498901 420.978760,405.075989 
	C421.224548,408.004517 421.178894,411.136475 420.924377,414.603180 
z"/>
<path fill="#70767D" opacity="1.000000" stroke="none" 
	d="
M417.848877,462.608337 
	C417.593445,459.779419 417.572021,456.649506 417.841797,453.244324 
	C418.116272,456.081818 418.099579,459.194611 417.848877,462.608337 
z"/>
<path fill="#70767D" opacity="1.000000" stroke="none" 
	d="
M156.397705,358.691193 
	C155.901978,355.963562 155.565842,352.811707 155.484375,349.363678 
	C156.011780,352.133972 156.284546,355.200500 156.397705,358.691193 
z"/>
<path fill="#4B525B" opacity="1.000000" stroke="none" 
	d="
M138.529572,453.406647 
	C138.989761,455.796570 139.313629,458.598846 139.369766,461.680115 
	C138.865768,459.245728 138.629501,456.532349 138.529572,453.406647 
z"/>
<path fill="#4B525B" opacity="1.000000" stroke="none" 
	d="
M136.128693,417.423462 
	C136.678146,419.806213 137.142899,422.614929 137.328552,425.701904 
	C136.714294,423.269928 136.379135,420.559692 136.128693,417.423462 
z"/>
<path fill="#70767D" opacity="1.000000" stroke="none" 
	d="
M161.321320,437.689514 
	C160.827499,435.247620 160.506119,432.465210 160.428711,429.382751 
	C160.946381,431.838165 161.220078,434.593597 161.321320,437.689514 
z"/>
<path fill="#50565F" opacity="1.000000" stroke="none" 
	d="
M133.460388,372.405396 
	C133.948013,374.790894 134.299454,377.589722 134.386154,380.669983 
	C133.855667,378.240479 133.589935,375.529602 133.460388,372.405396 
z"/>
<path fill="#50565F" opacity="1.000000" stroke="none" 
	d="
M132.251282,354.417145 
	C132.775833,356.794403 133.206818,359.596039 133.368073,362.679230 
	C132.784790,360.254364 132.471252,357.547943 132.251282,354.417145 
z"/>
<path fill="#50565F" opacity="1.000000" stroke="none" 
	d="
M127.159088,274.420288 
	C127.708664,276.799316 128.167847,279.603119 128.353302,282.687744 
	C127.742615,280.260681 127.405655,277.552887 127.159088,274.420288 
z"/>
<path fill="#50565F" opacity="1.000000" stroke="none" 
	d="
M128.377899,291.410828 
	C128.880142,293.785919 129.271133,296.581482 129.400177,299.660950 
	C128.847687,297.240326 128.557175,294.535797 128.377899,291.410828 
z"/>
<path fill="#50565F" opacity="1.000000" stroke="none" 
	d="
M129.533203,310.403503 
	C129.999130,312.791992 130.324356,315.591797 130.384628,318.671997 
	C129.877274,316.239868 129.634888,313.527344 129.533203,310.403503 
z"/>
<path fill="#70767D" opacity="1.000000" stroke="none" 
	d="
M152.287613,293.695068 
	C151.812363,291.571350 151.508362,289.117218 151.448822,286.372131 
	C151.948471,288.509033 152.203674,290.936829 152.287613,293.695068 
z"/>
<path fill="#484E57" opacity="1.000000" stroke="none" 
	d="
M157.024918,389.976379 
	C156.860550,386.475189 156.718948,382.952759 156.915070,379.176147 
	C157.455917,380.705994 157.659012,382.490021 157.583374,384.927277 
	C157.234131,387.024567 157.163620,388.468597 157.093109,389.912659 
	C157.093109,389.912659 157.047668,389.955170 157.024918,389.976379 
z"/>
<path fill="#4B525B" opacity="1.000000" stroke="none" 
	d="
M137.407074,435.400574 
	C137.893082,437.464233 138.266678,439.935699 138.376953,442.680511 
	C137.840637,440.572052 137.567642,438.190216 137.407074,435.400574 
z"/>
<path fill="#50565F" opacity="1.000000" stroke="none" 
	d="
M131.215179,339.406677 
	C131.726044,341.484955 132.147339,343.975342 132.285431,346.732452 
	C131.710037,344.605713 131.417831,342.212280 131.215179,339.406677 
z"/>
<path fill="#70767D" opacity="1.000000" stroke="none" 
	d="
M164.494385,485.723511 
	C163.996719,483.577820 163.667297,481.098694 163.592133,478.327850 
	C164.118469,480.487457 164.390549,482.938751 164.494385,485.723511 
z"/>
<path fill="#70767D" opacity="1.000000" stroke="none" 
	d="
M159.404236,405.743652 
	C158.935730,403.946533 158.636536,401.765198 158.575989,399.313721 
	C159.067596,401.148895 159.320572,403.254181 159.404236,405.743652 
z"/>
<path fill="#70767D" opacity="1.000000" stroke="none" 
	d="
M157.278229,373.703278 
	C156.827972,371.894348 156.537842,369.763031 156.490433,367.350555 
	C156.968231,369.173218 157.203293,371.277069 157.278229,373.703278 
z"/>
<path fill="#70767D" opacity="1.000000" stroke="none" 
	d="
M424.932983,350.616150 
	C424.706665,348.714569 424.689362,346.488403 424.942749,344.066620 
	C425.189606,346.011200 425.165802,348.151367 424.932983,350.616150 
z"/>
<path fill="#70767D" opacity="1.000000" stroke="none" 
	d="
M150.436218,262.729065 
	C149.961243,260.938446 149.647934,258.760986 149.576309,256.314392 
	C150.077957,258.144287 150.337921,260.243225 150.436218,262.729065 
z"/>
<path fill="#70767D" opacity="1.000000" stroke="none" 
	d="
M154.469025,326.737793 
	C153.990417,325.263397 153.658493,323.413361 153.561600,321.307434 
	C154.069656,322.821777 154.342697,324.591980 154.469025,326.737793 
z"/>
<path fill="#70767D" opacity="1.000000" stroke="none" 
	d="
M163.431488,469.753265 
	C162.953751,468.268463 162.629715,466.410522 162.546326,464.301453 
	C163.053055,465.826965 163.319122,467.603516 163.431488,469.753265 
z"/>
<path fill="#70767D" opacity="1.000000" stroke="none" 
	d="
M422.906738,381.664368 
	C422.633972,380.121399 422.562653,378.306946 422.749329,376.245422 
	C423.040924,377.796539 423.074585,379.594696 422.906738,381.664368 
z"/>
<path fill="#4B525B" opacity="1.000000" stroke="none" 
	d="
M140.259872,483.373932 
	C140.756302,484.833771 141.153336,486.672485 141.278564,488.754272 
	C140.724655,487.249176 140.442566,485.501007 140.259872,483.373932 
z"/>
<path fill="#70767D" opacity="1.000000" stroke="none" 
	d="
M162.268280,452.736877 
	C161.834595,451.536743 161.560226,450.051514 161.520920,448.312805 
	C161.979843,449.523468 162.203735,450.987610 162.268280,452.736877 
z"/>
<path fill="#70767D" opacity="1.000000" stroke="none" 
	d="
M423.919739,366.689697 
	C423.667938,365.429474 423.622223,363.921051 423.844055,362.193481 
	C424.116364,363.463379 424.121124,364.952454 423.919739,366.689697 
z"/>
<path fill="#70767D" opacity="1.000000" stroke="none" 
	d="
M419.912476,430.685730 
	C419.656555,429.427521 419.603943,427.917725 419.821777,426.193420 
	C420.100037,427.463959 420.107880,428.949066 419.912476,430.685730 
z"/>
<path fill="#70767D" opacity="1.000000" stroke="none" 
	d="
M157.281631,389.953735 
	C157.163620,388.468597 157.234131,387.024567 157.546356,385.315796 
	C158.030090,386.513733 158.272095,387.976349 158.368439,389.798615 
	C157.960129,390.157959 157.709244,390.103455 157.281631,389.953735 
z"/>
<path fill="#70767D" opacity="1.000000" stroke="none" 
	d="
M418.936401,445.690002 
	C418.674988,444.444122 418.608978,442.943451 418.799927,441.214783 
	C419.081848,442.469574 419.106842,443.952362 418.936401,445.690002 
z"/>
<path fill="#70767D" opacity="1.000000" stroke="none" 
	d="
M428.928833,286.686707 
	C428.675385,285.428436 428.622101,283.915253 428.841919,282.187866 
	C429.119690,283.459686 429.124298,284.945770 428.928833,286.686707 
z"/>
<path fill="#70767D" opacity="1.000000" stroke="none" 
	d="
M153.217499,308.728851 
	C152.790924,307.537537 152.521790,306.062042 152.480560,304.330872 
	C152.930618,305.531677 153.152786,306.988159 153.217499,308.728851 
z"/>
<path fill="#70767D" opacity="1.000000" stroke="none" 
	d="
M427.899963,302.684448 
	C427.635559,301.439362 427.570343,299.943512 427.761292,298.221802 
	C428.044708,299.475159 428.071930,300.954407 427.899963,302.684448 
z"/>
<path fill="#70767D" opacity="1.000000" stroke="none" 
	d="
M415.894958,491.708252 
	C415.672638,490.733521 415.651001,489.531189 415.899719,488.145691 
	C416.145264,489.135223 416.120453,490.307953 415.894958,491.708252 
z"/>
<path fill="#70767D" opacity="1.000000" stroke="none" 
	d="
M149.293015,245.770691 
	C148.844955,244.869476 148.560623,243.711487 148.495712,242.312531 
	C148.962341,243.219009 149.209549,244.366455 149.293015,245.770691 
z"/>
<path fill="#FF829A" opacity="1.000000" stroke="none" 
	d="
M287.238495,263.987732 
	C287.893250,263.503357 288.743591,263.251709 289.946198,263.005005 
	C289.343658,263.413483 288.388885,263.816986 287.238495,263.987732 
z"/>
<path fill="#545760" opacity="1.000000" stroke="none" 
	d="
M428.323120,213.949661 
	C428.871796,213.027878 429.746552,212.064606 430.986389,211.118744 
	C430.450745,212.060150 429.549988,212.984161 428.323120,213.949661 
z"/>
<path fill="#70767D" opacity="1.000000" stroke="none" 
	d="
M165.356201,490.819794 
	C164.881042,490.122406 164.522156,489.113861 164.317902,487.773438 
	C164.805832,488.463898 165.139145,489.486267 165.356201,490.819794 
z"/>
<path fill="#DB4468" opacity="1.000000" stroke="none" 
	d="
M377.688416,376.220276 
	C378.085052,375.980652 378.268524,375.984314 378.727203,375.994019 
	C378.684875,376.942139 378.367310,377.884277 377.748718,378.914001 
	C377.456879,378.155579 377.466064,377.309570 377.688416,376.220276 
z"/>
<path fill="#4B525B" opacity="1.000000" stroke="none" 
	d="
M141.234314,492.310364 
	C141.723389,492.853119 142.151596,493.711853 142.348267,494.762634 
	C141.802307,494.178558 141.487885,493.402435 141.234314,492.310364 
z"/>
<path fill="#DB4468" opacity="1.000000" stroke="none" 
	d="
M376.679474,383.200623 
	C376.854828,383.934937 376.813812,384.913208 376.454102,385.945740 
	C376.244629,385.148193 376.353882,384.296387 376.679474,383.200623 
z"/>
<path fill="#FF829A" opacity="1.000000" stroke="none" 
	d="
M266.893433,263.397736 
	C267.743317,263.155731 268.616058,263.229248 269.721436,263.533875 
	C268.941498,263.747742 267.928894,263.730499 266.893433,263.397736 
z"/>
<path fill="#50565F" opacity="1.000000" stroke="none" 
	d="
M134.767212,396.197998 
	C135.243332,396.435364 135.596313,396.909210 135.977829,397.693420 
	C135.917145,398.315369 135.745178,398.571320 135.280365,398.875427 
	C134.928207,398.130920 134.786148,397.282715 134.767212,396.197998 
z"/>
<path fill="#70767D" opacity="1.000000" stroke="none" 
	d="
M412.559326,503.268677 
	C412.446594,502.676575 412.586182,501.917145 412.995300,501.011566 
	C413.113739,501.610748 412.962708,502.356079 412.559326,503.268677 
z"/>
<path fill="#545760" opacity="1.000000" stroke="none" 
	d="
M427.977905,193.244873 
	C427.488159,193.441757 426.798218,193.428284 426.104492,193.075348 
	C426.659668,192.835419 427.218719,192.934967 427.977905,193.244873 
z"/>
<path fill="#70767D" opacity="1.000000" stroke="none" 
	d="
M421.033936,232.199997 
	C420.732269,231.961395 420.838837,231.657394 420.880493,231.502045 
	C421.669617,231.605164 422.417084,231.863647 423.341980,232.362564 
	C422.791412,232.548203 422.063507,232.493408 421.033936,232.199997 
z"/>
<path fill="#70767D" opacity="1.000000" stroke="none" 
	d="
M132.807739,232.558777 
	C132.478180,233.043945 131.855057,233.469925 130.925766,233.836121 
	C131.251114,233.350739 131.882645,232.925171 132.807739,232.558777 
z"/>
<path fill="#4B525B" opacity="1.000000" stroke="none" 
	d="
M142.434814,497.259094 
	C142.846573,497.542938 143.192841,498.096680 143.339905,498.798462 
	C142.883575,498.473999 142.626450,498.001495 142.434814,497.259094 
z"/>
<path fill="#70767D" opacity="1.000000" stroke="none" 
	d="
M414.568054,497.273193 
	C414.448425,496.703308 414.569489,495.957031 414.939880,495.041718 
	C415.062408,495.614044 414.935577,496.355408 414.568054,497.273193 
z"/>
<path fill="#FF4A6D" opacity="1.000000" stroke="none" 
	d="
M267.725616,216.092392 
	C267.815735,216.616333 267.633514,217.161316 267.201355,217.863770 
	C266.905029,217.839310 266.858643,217.657394 266.772583,217.195740 
	C266.973083,216.648499 267.213196,216.380966 267.725616,216.092392 
z"/>
<path fill="#FF4A6D" opacity="1.000000" stroke="none" 
	d="
M337.359802,282.075623 
	C337.184845,281.481110 337.390594,280.871429 337.878113,280.089417 
	C338.020111,280.631500 337.880310,281.345978 337.359802,282.075623 
z"/>
<path fill="#FF4A6D" opacity="1.000000" stroke="none" 
	d="
M220.272293,511.088684 
	C220.021317,491.057251 220.009918,471.071014 220.029160,451.084808 
	C220.030579,449.604034 220.252060,448.123444 220.663834,446.358459 
	C220.973602,467.412964 220.990768,488.751709 221.009949,510.562042 
	C220.847794,511.067017 220.683640,511.100464 220.272293,511.088684 
z"/>
<path fill="#4A5059" opacity="1.000000" stroke="none" 
	d="
M399.631958,377.882324 
	C399.342957,375.520782 399.402100,373.055511 399.711487,370.285797 
	C399.967865,372.580444 399.974030,375.179474 399.631958,377.882324 
z"/>
<path fill="#4A5059" opacity="1.000000" stroke="none" 
	d="
M404.698303,295.876282 
	C404.406372,293.851288 404.447815,291.719116 404.738037,289.290314 
	C405.001740,291.252167 405.016693,293.510651 404.698303,295.876282 
z"/>
<path fill="#4A5059" opacity="1.000000" stroke="none" 
	d="
M403.751617,311.872772 
	C403.456421,310.178040 403.478729,308.375458 403.746948,306.284790 
	C404.018280,307.919464 404.043701,309.842194 403.751617,311.872772 
z"/>
<path fill="#4A5059" opacity="1.000000" stroke="none" 
	d="
M400.838684,354.875854 
	C400.561829,354.328278 400.522736,353.734131 400.723511,353.060547 
	C401.001068,353.597137 401.038757,354.213226 400.838684,354.875854 
z"/>
<path fill="#4A5059" opacity="1.000000" stroke="none" 
	d="
M405.908875,273.906494 
	C405.654053,273.449249 405.620850,272.917236 405.797913,272.194458 
	C406.048950,272.613007 406.089722,273.222382 405.908875,273.906494 
z"/>
</svg>